# xmcd
#
# Track frame offsets:
#  182
#  12075
#  23555
#  36700
#  45327
#  55590
#  64595
#  74895
#  87437
#  96745
#  107497
#  118730
#  127140
#  136787
#  147482
#  159340
#  169532
#  181212
#  193587
#  205360
#  217267
#  227677
#  239615
#  249512
#  261512
#
# Disc length: 3633 seconds
#
# Revision: 0
# Processed by: cddbd v1.5.1PL2 Copyright (c) Steve Scherf et al.
# Submitted via: Collectorz.com_Music_Collector 6.9
#
DISCID=790e2f19
DTITLE=Various Artist - Dance With Me - Volume 01
DYEAR=1976
DGENRE=
TTITLE0=Burton, Johnny - (Come On) Dance With Me
TTITLE1=Jordan, Dick - Nobody's Boy
TTITLE2=Funky lloyd Price Orchestra, The - Oh, Pee Day
TTITLE3=Fisher, Toni - You Won't Forget Me
TTITLE4=Hay, Timothy - Dansero
TTITLE5=Jordan, Dick - Stranger In The World
TTITLE6=Darren, James - Punch And Judy
TTITLE7=Duprees - So Little Time
TTITLE8=Martini's, The - Hung Over
TTITLE9=Butler, Billy - Lady Love
TTITLE10=Reed, Lula - My Kind Of Baby
TTITLE11=Hughes, Jimmy - My Loving Time
TTITLE12=Cole, Jerry - Land Of Dreams
TTITLE13=Soul Partners, The - Spead
TTITLE14=Tate, Howard - Half A Man
TTITLE15=Chance, Nolan - If He Makes You
TTITLE16=Paris, Bobby - Who Needs You
TTITLE17=Watts, Noble - Teen Scene
TTITLE18=Flemons, Wade - Watch Over Her
TTITLE19=Hardesty, Herp - Perdido Street
TTITLE20=Yuro, Timi - Insult To Injury
TTITLE21=Larkin, Billy - Hole In The Wall
TTITLE22=Playmates, The - While The Record Goes Around
TTITLE23=Sharp, Dee Dee - The Night
TTITLE24=Hughes, Jimmy - Lovely ladies
EXTD=
EXTT0=
EXTT1=
EXTT2=
EXTT3=
EXTT4=
EXTT5=
EXTT6=
EXTT7=
EXTT8=
EXTT9=
EXTT10=
EXTT11=
EXTT12=
EXTT13=
EXTT14=
EXTT15=
EXTT16=
EXTT17=
EXTT18=
EXTT19=
EXTT20=
EXTT21=
EXTT22=
EXTT23=
EXTT24=
PLAYORDER=
